<mxfile host="app.diagrams.net" modified="2023-10-11T10:10:48.014Z" agent="Mozilla/5.0 (Windows NT 10.0; Win64; x64) AppleWebKit/537.36 (KHTML, like Gecko) Chrome/117.0.0.0 Safari/537.36" version="22.0.4" etag="H9LVTj5Wdu5K4V9GKBrs" type="github">
  <diagram name="페이지-1" id="P067EV61Pt3wdrxVAlNx">
    <mxGraphModel>
      <root>
        <mxCell id="0" />
        <mxCell id="1" parent="0" />
      </root>
    </mxGraphModel>
  </diagram>
</mxfile>
